<?xml version="1.0" encoding="UTF-8" standalone="no"?>
<svg width="10px" height="10px" viewBox="0 0 10 10" version="1.1" xmlns="http://www.w3.org/2000/svg" xmlns:xlink="http://www.w3.org/1999/xlink">
    <!-- Generator: Sketch 3.6.1 (26313) - http://www.bohemiancoding.com/sketch -->
    <title>Group</title>
    <desc>Created with Sketch.</desc>
    <defs></defs>
    <g id="Page-1" stroke="none" stroke-width="1" fill="none" fill-rule="evenodd">
        <g id="Group">
            <path d="M0.36,5 C0.36,7.56 2.44,9.64 5,9.64 C7.56,9.64 9.64,7.56 9.64,5 C9.64,2.44 7.56,0.36 5,0.36 C2.44,0.36 0.36,2.44 0.36,5" id="path3743" fill="#2A53CD"></path>
            <path d="M3.93,2.14 C3.9,1.61 4.48,1.17 4.99,1.31 C5.49,1.43 5.78,2.04 5.55,2.49 C5.35,2.93 4.76,3.1 4.35,2.85 C4.09,2.71 3.93,2.43 3.93,2.14 L3.93,2.14 Z M5.63,7.6 L6.3,7.6 L6.3,8.13 L3.41,8.13 L3.41,7.6 L4.07,7.6 L4.07,3.99 L3.41,3.99 L3.41,3.46 L5.63,3.46 L5.63,7.6 L5.63,7.6 Z" id="path3745" fill="#FFFFFF"></path>
        </g>
    </g>
</svg>